<?xml version="1.0" encoding="utf-8"?>
<!-- Generator: Adobe Illustrator 23.0.3, SVG Export Plug-In . SVG Version: 6.00 Build 0)  -->
<svg version="1.1" id="Layer_1" xmlns="http://www.w3.org/2000/svg" xmlns:xlink="http://www.w3.org/1999/xlink" x="0px" y="0px"
	 viewBox="0 0 435 127" style="enable-background:new 0 0 435 127;" xml:space="preserve">
<style type="text/css">
	.st0{fill:#80BC00;}
	.st1{fill:#003A5D;}
	.st2{fill:#76BC21;}
	.st3{fill:#FFFFFF;}
	.st4{fill:#A2D9E7;}
	.st5{fill:#F5333F;}
</style>
<g>
	<polygon class="st0" points="164.57,72.95 167.27,72.95 173.6,92.53 171.39,92.53 169.43,86.49 162.45,86.49 160.55,92.53 
		158.33,92.53 	"/>
	<path class="st0" d="M177.69,72.95h4.54c1.53,0,6.22,0.06,6.22,5.42c0,3.94-2.61,5.42-6.22,5.42h-2.33v8.74h-2.21V72.95z"/>
	<path class="st0" d="M191.79,82.71c0-4.97,1.36-10.08,6.98-10.08c5.59,0,6.95,5.11,6.95,10.08c0,4.94-1.36,10.13-6.95,10.13
		C193.16,92.84,191.79,87.65,191.79,82.71"/>
	<path class="st0" d="M211.01,72.95h4.85c1.33,0,6.24,0.17,6.24,4.94c0,3.52-2.16,4.46-3.97,4.91v0.05c2.7,0.71,2.95,2.16,3.38,4.31
		l1.13,5.37h-2.21l-0.96-4.51c-0.6-2.84-1.19-4.2-4.2-4.2h-2.04v8.71h-2.21V72.95z"/>
	<polygon class="st1" points="357.93,34.56 363.07,34.56 371.65,59.74 367.2,59.74 365.01,52.91 355.96,52.91 353.77,59.74 
		349.32,59.74 	"/>
	<path class="st1" d="M257.03,47.15c0-7.33,2.3-12.99,10.18-12.99c7.85,0,10.18,5.66,10.18,12.99c0,7.34-2.33,12.99-10.18,12.99
		C259.33,60.14,257.03,54.48,257.03,47.15"/>
	<path class="st1" d="M207.92,34.56h7.63c4.74,0,8.1,1.68,8.1,6.6c0,3.98-2.41,5.22-5,5.84v0.07c3.5,0.77,3.9,2.92,4.49,5.58
		l1.53,7.08h-4.34l-1.17-5.44c-0.88-4.02-1.39-5.37-5.29-5.37h-1.68v10.8h-4.27V34.56z"/>
	<path class="st2" d="M19.3,23.56C12.86,34.24,9.31,48.43,9.31,63.5c0,15.07,3.55,29.25,9.99,39.93
		c6.55,10.86,15.31,16.84,24.68,16.84c9.36,0,18.13-5.98,24.68-16.84c6.44-10.68,9.99-24.86,9.99-39.93
		c0-15.07-3.55-29.26-9.99-39.94C62.11,12.7,53.34,6.73,43.98,6.73C34.61,6.73,25.85,12.7,19.3,23.56"/>
	<path class="st3" d="M11.48,63.5c0-30.11,14.58-54.6,32.5-54.6c17.92,0,32.49,24.49,32.49,54.6c0,30.11-14.57,54.6-32.49,54.6
		C26.06,118.1,11.48,93.61,11.48,63.5"/>
	<path class="st1" d="M14.56,75.9c2.49,17.35,10.02,31.27,19.77,36.91c-0.02-13.53-0.29-18.4-3.57-24.65
		C28.14,83.15,18.64,77.95,14.56,75.9"/>
	<path class="st1" d="M29.97,41.11c0-11.78,5.71-21.46,12.92-22.36v-7.43c-14.36,0.87-26.18,18.94-28.71,42.61
		c12.85,7.17,14.8,8.55,16.22,9.55l0.76,0.52c1.58,1.06,9.48,7.06,9.48,21.64v29.54c0.74,0.14,1.49,0.23,2.25,0.28v-52
		C35.67,62.57,29.97,52.89,29.97,41.11"/>
	<path class="st1" d="M74,56.3c-12,6.72-13.84,8.01-15.19,8.96L58,65.82c-3.93,2.62-8.51,9.38-8.51,19.83v28.99
		c0.66-0.21,1.31-0.45,1.96-0.74c0-14.78,0.22-19.89,3.82-26.75c3.32-6.32,15.49-12.43,18.46-13.84c0.36-3.21,0.55-6.52,0.55-9.91
		C74.28,60.99,74.18,58.61,74,56.3"/>
	<path class="st4" d="M56.8,64.01l0.76-0.52c1.42-1.01,3.37-2.38,16.22-9.55c-2.52-23.67-14.34-41.74-28.71-42.61v7.43
		c7.22,0.89,12.92,10.58,12.92,22.36c0,11.78-5.7,21.46-12.92,22.36v52c0.76-0.05,1.51-0.14,2.25-0.28V85.65
		C47.32,71.07,55.21,65.06,56.8,64.01"/>
	<path class="st4" d="M29.96,65.82l-0.81-0.56c-1.35-0.95-3.19-2.25-15.18-8.96c-0.18,2.32-0.28,4.69-0.28,7.1
		c0,3.39,0.19,6.7,0.55,9.91c2.97,1.41,15.14,7.52,18.46,13.84c3.6,6.86,3.82,11.98,3.82,26.75c0.64,0.28,1.3,0.52,1.96,0.74V85.65
		C38.47,75.19,33.88,68.43,29.96,65.82"/>
	<path class="st4" d="M57.19,88.16c-3.27,6.24-3.55,11.12-3.57,24.65c9.75-5.63,17.29-19.56,19.77-36.91
		C69.32,77.95,59.82,83.15,57.19,88.16"/>
	<path class="st5" d="M55.81,41.11c0-11.17-5.31-20.26-11.83-20.26c-6.53,0-11.84,9.09-11.84,20.26c0,11.17,5.31,20.26,11.84,20.26
		C50.5,61.37,55.81,52.28,55.81,41.11"/>
	<polygon class="st1" points="97.79,34.56 103.63,34.56 110.64,54.67 110.71,54.67 117.75,34.56 123.56,34.56 123.56,59.74 
		119.65,59.74 119.65,39.89 119.58,39.89 112.64,59.74 108.7,59.74 101.77,39.89 101.7,39.89 101.7,59.74 97.79,59.74 	"/>
	<rect x="128.81" y="34.56" class="st1" width="4.27" height="25.18"/>
	<polygon class="st1" points="138.37,34.56 143.62,34.56 153.33,53.1 153.4,53.1 153.4,34.56 157.31,34.56 157.31,59.74 
		152.53,59.74 142.35,40.29 142.27,40.29 142.27,59.74 138.37,59.74 	"/>
	<rect x="162.6" y="34.56" class="st1" width="4.27" height="25.18"/>
	<path class="st1" d="M185.52,38.79c-1.68-0.66-3.76-1.6-6.31-1.6c-2.12,0-3.79,0.95-3.79,3.1c0,4.45,12.01,5.11,12.01,12.7
		c0,4.71-3.8,7.15-9.27,7.15c-3.25,0-6.2-0.88-6.97-1.06v-4.41c1.5,0.91,3.94,2.44,7.12,2.44c3.36,0,4.42-1.86,4.42-3.5
		c0-5.47-12.01-5.8-12.01-12.96c0-4.49,3.9-6.5,8.65-6.5c2.81,0,5.26,0.51,6.17,0.69V38.79z"/>
	<polygon class="st1" points="194.71,37.81 188.4,37.81 188.4,34.56 205.3,34.56 205.3,37.81 198.98,37.81 198.98,59.74 
		194.71,59.74 	"/>
	<path class="st3" d="M212.19,45.91h1.68c2.66,0,5.44-0.55,5.44-4.27c0-2.63-1.35-4.05-3.76-4.05h-3.36V45.91z"/>
	<polygon class="st1" points="233.25,48.06 224.96,34.56 229.82,34.56 235.4,43.61 240.98,34.56 245.84,34.56 237.52,48.06 
		237.52,59.74 233.25,59.74 	"/>
	<path class="st3" d="M267.21,57.11c4.31,0,5.47-4.6,5.47-9.96s-1.17-9.96-5.47-9.96c-4.34,0-5.47,4.6-5.47,9.96
		S262.87,57.11,267.21,57.11"/>
	<polygon class="st1" points="281.73,34.56 295.97,34.56 295.97,37.81 286.01,37.81 286.01,45.07 295.42,45.07 295.42,48.32 
		286.01,48.32 286.01,59.74 281.73,59.74 	"/>
	<polygon class="st1" points="310.09,34.56 314.36,34.56 314.36,45 323.41,45 323.41,34.56 327.68,34.56 327.68,59.74 323.41,59.74 
		323.41,48.24 314.36,48.24 314.36,59.74 310.09,59.74 	"/>
	<polygon class="st1" points="333.08,34.56 347.79,34.56 347.79,37.81 337.35,37.81 337.35,45.07 347.24,45.07 347.24,48.32 
		337.35,48.32 337.35,56.49 348.08,56.49 348.08,59.74 333.08,59.74 	"/>
	<polygon class="st3" points="356.98,49.67 363.99,49.67 360.52,38.61 360.45,38.61 	"/>
	<polygon class="st1" points="374.35,34.56 378.62,34.56 378.62,56.49 388.51,56.49 388.51,59.74 374.35,59.74 	"/>
	<polygon class="st1" points="394.82,37.81 388.51,37.81 388.51,34.56 405.4,34.56 405.4,37.81 399.09,37.81 399.09,59.74 
		394.82,59.74 	"/>
	<polygon class="st1" points="408.11,34.56 412.38,34.56 412.38,45 421.43,45 421.43,34.56 425.69,34.56 425.69,59.74 421.43,59.74 
		421.43,48.24 412.38,48.24 412.38,59.74 408.11,59.74 	"/>
	<path class="st0" d="M105.28,81.94c1.99,1.11,4.14,2.3,4.14,5.39c0,4.09-3.24,5.51-6.9,5.51c-2.1,0-4-0.48-4.51-0.6v-2.27
		c0.43,0.17,2.38,1.02,4.77,1.02c2.41,0,4.23-1.19,4.23-3.35c0-2.21-1.65-3.04-3.26-3.95l-1.73-0.96c-1.82-1.02-4.23-2.1-4.23-5.08
		c0-3.38,2.7-5.02,6.3-5.02c1.87,0,3.41,0.37,4.09,0.51v2.19c-0.48-0.2-2.19-0.85-4.29-0.85c-2.24,0-3.69,1.17-3.69,2.98
		c0,1.73,1.73,2.64,3.26,3.49L105.28,81.94z"/>
	<rect x="114.31" y="72.95" class="st0" width="2.21" height="19.59"/>
	<polygon class="st0" points="122.94,72.95 125.78,72.95 133.84,89.49 133.89,89.49 133.89,72.95 135.99,72.95 135.99,92.53 
		133.15,92.53 125.09,76.04 125.04,76.04 125.04,92.53 122.94,92.53 	"/>
	<path class="st0" d="M154.75,90.97c-0.48,0.43-2.58,1.87-5.65,1.87c-6.19,0-7.83-5.08-7.83-10.76c0-4.99,1.93-9.45,7.29-9.45
		c3.89,0,6.3,2.38,6.3,5.65h-2.5c0-1.76-0.96-3.81-3.77-3.81c-3.97,0-4.91,4.06-4.91,7.61c0,3.8,0.65,8.91,5.25,8.91
		c1.99,0,3.26-0.76,3.6-1.08v-6.61h-4.48v-1.85h6.7V90.97z"/>
	<polygon class="st3" points="163.04,84.64 168.83,84.64 165.97,74.96 165.91,74.96 	"/>
	<path class="st3" d="M179.9,81.94h2.38c2.78,0,3.95-1.31,3.95-3.55c0-3.6-2.89-3.6-4.48-3.6h-1.84V81.94z"/>
	<path class="st3" d="M198.78,91c3.92,0,4.54-4.8,4.54-8.32c0-3.55-0.62-8.2-4.54-8.2c-3.95,0-4.57,4.66-4.57,8.2
		C194.21,86.2,194.83,91,198.78,91"/>
	<path class="st3" d="M213.22,81.97h1.22c2.67,0,5.45-0.6,5.45-3.86c0-3.32-2.67-3.32-5.02-3.32h-1.65V81.97z"/>
	<polygon class="st0" points="227.67,72.95 237.15,72.95 237.15,74.79 229.88,74.79 229.88,81.35 236.81,81.35 236.81,83.19 
		229.88,83.19 229.88,90.69 237.4,90.69 237.4,92.53 227.67,92.53 	"/>
</g>
</svg>
