<?xml version="1.0" encoding="utf-8"?>
<!-- Generator: Adobe Illustrator 23.0.3, SVG Export Plug-In . SVG Version: 6.00 Build 0)  -->
<svg version="1.1" id="Layer_1" xmlns="http://www.w3.org/2000/svg" xmlns:xlink="http://www.w3.org/1999/xlink" x="0px" y="0px"
	 viewBox="0 0 566.93 90" style="enable-background:new 0 0 566.93 90;" xml:space="preserve">
<style type="text/css">
	.st0{fill-rule:evenodd;clip-rule:evenodd;fill:#EC2227;}
	.st1{fill:#636363;}
	.st2{fill:#EC2227;}
</style>
<g>
	<g>
		<path class="st0" d="M35.72,23.54c3.83,0.1,8.06-0.2,11.62,0.16c2.39,2.59-1.02,5.88-4.91,5.24c1.58,2.7,0.43,6.85-1.15,8.51
			c-4.48,4.66-13.98-0.12-17.18,4.58c-1.74-1.34-2.2-5.73-0.82-7.85c0.81,2.53,8.23,3.26,7.85-0.16c-0.29-2.59-6.48-1.67-8.02-0.49
			c-0.21-1.62-1.65-3.04-1.31-4.58c0.33-1.46,1.97-0.95,2.78-2.13c-0.36-0.92-1.73,0.3-1.96,0c-0.03-4.23,5.6-2.8,9.32-3.27
			C32.67,24.86,35.17,25.47,35.72,23.54z"/>
		<path class="st0" d="M49.95,63.61c-0.86-11.29,10.1-12.97,10.96-22.74c0.64-7.23-5.13-13.24-11.28-14.89
			c0.1-1.14-0.35-1.72-0.66-2.45c12.1-0.46,21.26,8.84,20.45,20.94c-0.32,4.8-2.81,10.79-6.54,13.25
			C58.94,60.32,54.14,61.34,49.95,63.61z"/>
		<path class="st0" d="M48.97,64.43c-2.34,1.29-4.99,3.19-6.87,5.07c-0.48,0.48-1.69,2.6-2.13,2.62c-0.49,0.03-2.35-2.83-2.62-3.43
			c-3.18-7.27,2.01-13.28,5.89-17.83c3.27-3.84,6.79-7.62,7.36-12.76c0.46-4.1-1.01-7.55-2.95-9.16c0.54-0.51,1.16-1.78,1.63-1.8
			c5.24,1.64,9.3,5.17,10.3,10.63C61.79,49.69,46.28,52.03,48.97,64.43z"/>
		<path class="st0" d="M46.35,29.59c0.11,0,0.22,0,0.33,0c1.92,1.99,2.99,4.02,2.78,7.52c-0.62,10.25-13.14,14.9-14.07,25.52
			c-0.43,4.92,1.48,7.77,3.76,10.47c-0.98,1.5-1.85,4.39-0.98,6.71c-6.83-4.52-13.68-10.14-14.39-19.47
			c-0.62-8.05,4.33-12.07,8.67-15.21c5.37-3.9,13.15-6.09,11.78-14.89C45.05,30.14,45.76,29.92,46.35,29.59z"/>
		<path class="st0" d="M30.82,22.39c-0.21-0.68,0.65-1.22,1.14-1.63c0.52-0.44,1.22-1.06,1.96-1.31c1.36-0.45,3.11-0.15,4.58-0.65
			c1.31-0.44,2-1.87,3.43-2.78c3.07-1.95,8.28-1.48,11.94-0.82c4.12,0.74,6.84,2.17,9.49,4.25c-5.43-3.02-15.52-1.68-18.98,2.78
			C40.04,22.46,35.39,22.39,30.82,22.39z"/>
		<path class="st0" d="M46.68,22.39c-0.19-0.56,1.95-1.8,3.11-2.29c12.58-5.34,25.22,7.57,26.17,18.48
			c0.72,8.2-4.27,12.39-8.67,16.36c1.9-3.92,3.95-8.3,3.27-14.39C69.33,29.44,59.44,21.12,46.68,22.39z"/>
	</g>
	<g>
		<path class="st1" d="M111.3,19.9c-0.24-2.27-1.05-3.91-2.46-4.93c-1.4-1.02-3.19-1.52-5.37-1.52c-0.88,0-1.75,0.09-2.61,0.27
			c-0.86,0.18-1.62,0.47-2.28,0.88c-0.67,0.41-1.19,0.97-1.59,1.66c-0.4,0.69-0.6,1.55-0.6,2.59c0,0.97,0.29,1.76,0.86,2.37
			c0.58,0.6,1.34,1.1,2.3,1.48c0.96,0.38,2.04,0.7,3.25,0.95c1.21,0.25,2.44,0.52,3.71,0.82c1.27,0.29,2.5,0.64,3.71,1.04
			c1.21,0.4,2.28,0.94,3.23,1.62c0.94,0.68,1.7,1.54,2.28,2.59c0.58,1.05,0.86,2.34,0.86,3.87c0,1.68-0.38,3.12-1.13,4.31
			c-0.75,1.19-1.72,2.17-2.9,2.92c-1.18,0.75-2.5,1.3-3.96,1.66c-1.46,0.35-2.91,0.53-4.35,0.53c-1.77,0-3.44-0.22-5.02-0.66
			c-1.58-0.44-2.96-1.12-4.16-2.03c-1.19-0.91-2.14-2.07-2.83-3.47c-0.69-1.4-1.04-3.06-1.04-4.97h3.98c0,1.33,0.26,2.47,0.77,3.43
			c0.51,0.96,1.19,1.74,2.03,2.36c0.84,0.62,1.81,1.08,2.92,1.37c1.11,0.29,2.26,0.44,3.47,0.44c0.94,0,1.89-0.09,2.85-0.27
			c0.96-0.18,1.82-0.48,2.59-0.9c0.77-0.43,1.38-1.01,1.85-1.75c0.47-0.74,0.71-1.68,0.71-2.83c0-1.09-0.29-1.97-0.86-2.65
			c-0.57-0.68-1.33-1.23-2.28-1.66c-0.94-0.43-2.02-0.78-3.23-1.06c-1.21-0.28-2.45-0.55-3.71-0.82c-1.27-0.26-2.51-0.58-3.72-0.95
			c-1.21-0.37-2.29-0.86-3.25-1.48c-0.96-0.62-1.72-1.4-2.3-2.34c-0.58-0.94-0.86-2.14-0.86-3.58c0-1.59,0.33-2.97,0.97-4.13
			c0.65-1.16,1.51-2.12,2.59-2.87c1.07-0.75,2.3-1.31,3.67-1.68c1.37-0.37,2.78-0.55,4.22-0.55c1.62,0,3.12,0.19,4.51,0.57
			c1.39,0.38,2.59,0.99,3.63,1.81c1.03,0.82,1.86,1.86,2.48,3.12c0.62,1.25,0.96,2.75,1.01,4.49H111.3z"/>
		<path class="st1" d="M125.05,15.26h-3.76v-4.6h3.76V15.26z M121.29,19.37h3.76v22.86h-3.76V19.37z"/>
		<path class="st1" d="M130.88,19.37h3.54V23h0.09c0.79-1.41,1.82-2.46,3.07-3.14c1.25-0.68,2.7-1.02,4.36-1.02
			c1.5,0,2.75,0.21,3.76,0.62c1,0.41,1.81,0.99,2.43,1.72c0.62,0.74,1.05,1.62,1.31,2.63c0.25,1.02,0.38,2.14,0.38,3.38v15.03h-3.76
			V26.75c0-1.41-0.42-2.53-1.24-3.36c-0.82-0.82-1.96-1.24-3.4-1.24c-1.15,0-2.14,0.18-2.98,0.53c-0.84,0.35-1.54,0.86-2.1,1.5
			c-0.56,0.65-0.98,1.41-1.26,2.28c-0.28,0.87-0.42,1.82-0.42,2.85v12.91h-3.76V19.37z"/>
		<path class="st1" d="M175.18,40.28c0,3.74-0.86,6.55-2.59,8.42c-1.72,1.87-4.4,2.81-8.02,2.81c-1.06,0-2.15-0.12-3.25-0.35
			c-1.1-0.24-2.11-0.62-3-1.15c-0.9-0.53-1.64-1.22-2.23-2.08c-0.59-0.85-0.91-1.9-0.97-3.14h3.76c0.03,0.68,0.24,1.25,0.64,1.72
			c0.4,0.47,0.89,0.85,1.46,1.15c0.58,0.3,1.2,0.51,1.88,0.64c0.68,0.13,1.33,0.2,1.94,0.2c1.24,0,2.29-0.21,3.14-0.64
			c0.85-0.43,1.56-1.02,2.12-1.77c0.56-0.75,0.96-1.66,1.21-2.72c0.25-1.06,0.38-2.24,0.38-3.54v-1.5h-0.09
			c-0.33,0.71-0.74,1.32-1.24,1.84c-0.5,0.51-1.07,0.94-1.7,1.28c-0.64,0.34-1.31,0.6-2.03,0.77c-0.72,0.18-1.44,0.26-2.15,0.26
			c-1.71,0-3.2-0.31-4.47-0.93c-1.27-0.62-2.33-1.46-3.18-2.52c-0.85-1.06-1.5-2.29-1.92-3.69c-0.43-1.4-0.64-2.88-0.64-4.44
			c0-1.36,0.18-2.74,0.53-4.16c0.36-1.41,0.95-2.71,1.77-3.89c0.82-1.18,1.91-2.14,3.27-2.9c1.36-0.75,3.02-1.13,4.99-1.13
			c1.45,0,2.77,0.32,3.96,0.95c1.19,0.63,2.13,1.58,2.81,2.85h0.09v-3.27h3.54V40.28z M167.82,38.4c0.87-0.51,1.57-1.19,2.1-2.03
			c0.53-0.84,0.92-1.79,1.17-2.85c0.25-1.06,0.37-2.12,0.37-3.18c0-1-0.12-1.99-0.35-2.96c-0.24-0.97-0.61-1.85-1.13-2.63
			c-0.52-0.78-1.19-1.41-2.01-1.88c-0.83-0.47-1.82-0.71-3.01-0.71c-1.21,0-2.24,0.23-3.09,0.69c-0.86,0.46-1.55,1.07-2.1,1.84
			c-0.55,0.77-0.94,1.65-1.19,2.65c-0.25,1-0.38,2.05-0.38,3.14c0,1.03,0.1,2.06,0.31,3.1c0.2,1.03,0.56,1.97,1.06,2.81
			c0.5,0.84,1.16,1.52,1.99,2.03c0.83,0.52,1.86,0.77,3.1,0.77C165.9,39.18,166.95,38.92,167.82,38.4z"/>
		<path class="st1" d="M201.09,42.23c-0.33,0.15-0.71,0.27-1.15,0.37c-0.44,0.1-0.96,0.16-1.55,0.16c-0.97,0-1.75-0.28-2.32-0.84
			c-0.58-0.56-0.86-1.46-0.86-2.7c-1.03,1.24-2.23,2.14-3.6,2.7c-1.37,0.56-2.85,0.84-4.44,0.84c-1.03,0-2.01-0.12-2.94-0.35
			c-0.93-0.24-1.73-0.61-2.41-1.13c-0.68-0.52-1.21-1.18-1.61-1.99c-0.4-0.81-0.59-1.79-0.59-2.94c0-1.3,0.22-2.36,0.66-3.18
			c0.44-0.82,1.02-1.49,1.75-1.99c0.72-0.5,1.55-0.89,2.48-1.17c0.93-0.28,1.88-0.51,2.85-0.69c1.03-0.21,2.01-0.36,2.94-0.46
			c0.93-0.1,1.74-0.25,2.43-0.44c0.69-0.19,1.25-0.47,1.66-0.84c0.41-0.37,0.62-0.91,0.62-1.61c0-0.82-0.15-1.49-0.44-1.99
			c-0.3-0.5-0.69-0.89-1.17-1.15c-0.49-0.27-1.03-0.44-1.64-0.53c-0.6-0.09-1.2-0.13-1.79-0.13c-1.59,0-2.92,0.3-3.98,0.91
			c-1.06,0.6-1.64,1.75-1.73,3.43h-3.76c0.06-1.42,0.35-2.61,0.88-3.58c0.53-0.97,1.24-1.76,2.12-2.36c0.89-0.61,1.9-1.04,3.05-1.31
			c1.15-0.27,2.36-0.4,3.63-0.4c1.03,0,2.05,0.07,3.07,0.22c1.02,0.15,1.94,0.45,2.77,0.91c0.82,0.46,1.48,1.1,1.99,1.92
			c0.5,0.83,0.75,1.9,0.75,3.23v11.76c0,0.88,0.05,1.53,0.15,1.95c0.1,0.41,0.45,0.62,1.04,0.62c0.35,0,0.73-0.07,1.15-0.22V42.23z
			 M194.99,30.47c-0.35,0.24-0.8,0.43-1.33,0.58c-0.53,0.15-1.09,0.27-1.68,0.38c-0.59,0.1-1.22,0.19-1.88,0.26
			c-0.66,0.07-1.3,0.17-1.92,0.29c-0.62,0.12-1.21,0.26-1.77,0.44c-0.56,0.18-1.05,0.42-1.46,0.73c-0.42,0.31-0.75,0.7-1,1.17
			c-0.25,0.47-0.38,1.06-0.38,1.77c0,0.62,0.13,1.14,0.38,1.57c0.25,0.43,0.58,0.77,0.97,1.04c0.4,0.27,0.86,0.46,1.39,0.58
			c0.53,0.12,1.09,0.18,1.68,0.18c1.24,0,2.3-0.17,3.18-0.51c0.88-0.34,1.6-0.77,2.17-1.28c0.56-0.51,0.97-1.08,1.24-1.68
			c0.27-0.6,0.4-1.17,0.4-1.7V30.47z"/>
		<path class="st1" d="M204.71,19.37h3.76v3.09h0.09c0.62-1.27,1.59-2.19,2.92-2.76c1.33-0.57,2.79-0.86,4.38-0.86
			c1.77,0,3.31,0.32,4.62,0.97c1.31,0.65,2.4,1.53,3.27,2.63c0.87,1.11,1.53,2.38,1.97,3.82c0.44,1.45,0.66,2.98,0.66,4.6
			c0,1.62-0.21,3.15-0.64,4.6c-0.43,1.44-1.08,2.7-1.94,3.78c-0.87,1.08-1.96,1.93-3.27,2.56c-1.31,0.63-2.84,0.95-4.57,0.95
			c-0.59,0-1.22-0.06-1.9-0.18c-0.68-0.12-1.35-0.32-2.03-0.6c-0.68-0.28-1.32-0.65-1.92-1.11c-0.61-0.46-1.11-1.02-1.53-1.7h-0.09
			v11.81h-3.76V19.37z M221.98,27.48c-0.28-1.02-0.71-1.92-1.28-2.72c-0.58-0.8-1.31-1.43-2.21-1.9c-0.9-0.47-1.96-0.71-3.16-0.71
			c-1.27,0-2.34,0.25-3.23,0.75c-0.88,0.5-1.61,1.16-2.16,1.97c-0.56,0.81-0.97,1.73-1.22,2.76c-0.25,1.03-0.38,2.08-0.38,3.14
			c0,1.12,0.13,2.2,0.4,3.25c0.26,1.05,0.68,1.97,1.26,2.76c0.57,0.8,1.32,1.44,2.23,1.92c0.92,0.49,2.02,0.73,3.32,0.73
			c1.27,0,2.34-0.25,3.23-0.75c0.88-0.5,1.59-1.16,2.12-1.99c0.53-0.83,0.91-1.77,1.15-2.83c0.24-1.06,0.36-2.15,0.36-3.27
			C222.4,29.54,222.26,28.5,221.98,27.48z"/>
		<path class="st1" d="M230.26,26.11c0.47-1.46,1.18-2.73,2.12-3.8c0.95-1.08,2.1-1.92,3.47-2.54c1.37-0.62,2.97-0.93,4.79-0.93
			c1.8,0,3.39,0.31,4.77,0.93c1.39,0.62,2.55,1.47,3.5,2.54c0.94,1.07,1.65,2.34,2.12,3.8c0.47,1.46,0.71,3.03,0.71,4.71
			c0,1.68-0.23,3.24-0.71,4.69c-0.47,1.44-1.18,2.7-2.12,3.78c-0.95,1.08-2.11,1.92-3.5,2.54c-1.38,0.62-2.97,0.93-4.77,0.93
			c-1.83,0-3.42-0.31-4.79-0.93c-1.37-0.62-2.53-1.47-3.47-2.54c-0.95-1.08-1.65-2.34-2.12-3.78c-0.47-1.45-0.71-3.01-0.71-4.69
			C229.56,29.14,229.79,27.57,230.26,26.11z M234.09,34.51c0.37,1.08,0.88,1.98,1.53,2.7c0.65,0.72,1.41,1.27,2.28,1.66
			c0.87,0.38,1.79,0.58,2.76,0.58c0.98,0,1.9-0.19,2.77-0.58c0.87-0.38,1.63-0.93,2.28-1.66c0.65-0.72,1.16-1.62,1.53-2.7
			c0.37-1.08,0.55-2.31,0.55-3.69c0-1.38-0.18-2.62-0.55-3.69c-0.37-1.08-0.88-1.98-1.53-2.72c-0.65-0.74-1.41-1.3-2.28-1.68
			c-0.87-0.38-1.79-0.57-2.77-0.57c-0.97,0-1.89,0.19-2.76,0.57c-0.87,0.38-1.63,0.94-2.28,1.68c-0.65,0.74-1.16,1.64-1.53,2.72
			c-0.37,1.08-0.55,2.31-0.55,3.69C233.53,32.21,233.72,33.44,234.09,34.51z"/>
		<path class="st1" d="M256.03,19.37h3.54v4.82h0.08c0.92-1.86,2.04-3.23,3.36-4.11c1.33-0.88,3-1.3,5.04-1.24v3.98
			c-1.5,0-2.79,0.21-3.85,0.62c-1.06,0.41-1.92,1.02-2.56,1.81c-0.65,0.79-1.12,1.77-1.42,2.92c-0.29,1.15-0.44,2.45-0.44,3.89
			v10.17h-3.76V19.37z"/>
		<path class="st1" d="M289.59,34.98c-0.5,2.54-1.6,4.46-3.32,5.79c-1.71,1.33-3.86,1.99-6.45,1.99c-1.83,0-3.41-0.3-4.75-0.91
			c-1.34-0.6-2.47-1.44-3.38-2.5c-0.92-1.06-1.6-2.33-2.06-3.8c-0.46-1.47-0.72-3.08-0.77-4.82c0-1.71,0.27-3.29,0.8-4.75
			c0.53-1.46,1.27-2.72,2.23-3.78c0.96-1.06,2.09-1.89,3.41-2.47c1.31-0.59,2.75-0.88,4.31-0.88c2.03,0,3.72,0.42,5.06,1.26
			c1.34,0.84,2.42,1.91,3.23,3.21c0.81,1.3,1.37,2.71,1.68,4.24c0.31,1.53,0.43,2.99,0.38,4.38h-17.11c-0.03,1,0.09,1.95,0.35,2.85
			c0.27,0.9,0.7,1.69,1.29,2.39c0.59,0.69,1.34,1.25,2.25,1.66c0.91,0.41,1.99,0.62,3.23,0.62c1.56,0,2.86-0.37,3.89-1.1
			c1.03-0.74,1.71-1.86,2.04-3.36H289.59z M285.97,28.61c-0.06-0.88-0.26-1.72-0.6-2.52c-0.34-0.8-0.8-1.48-1.37-2.06
			c-0.58-0.58-1.26-1.03-2.05-1.37c-0.8-0.34-1.65-0.51-2.56-0.51c-0.98,0-1.85,0.17-2.63,0.51c-0.78,0.34-1.45,0.81-2.01,1.39
			c-0.56,0.59-1,1.28-1.33,2.06c-0.33,0.78-0.52,1.61-0.58,2.5H285.97z"/>
		<path class="st2" d="M330.35,38.29c-0.62,0.83-1.32,1.53-2.1,2.12c-0.78,0.59-1.62,1.08-2.5,1.46c-0.88,0.38-1.8,0.66-2.74,0.84
			c-0.94,0.18-1.87,0.26-2.79,0.26c-2.36,0-4.46-0.44-6.32-1.33c-1.85-0.89-3.43-2.06-4.73-3.54c-1.3-1.47-2.28-3.17-2.96-5.08
			c-0.68-1.91-1.02-3.9-1.02-5.97c0-2.3,0.31-4.49,0.95-6.56c0.63-2.08,1.58-3.9,2.83-5.46c1.25-1.56,2.81-2.81,4.69-3.74
			c1.87-0.93,4.06-1.39,6.57-1.39c1.71,0,3.32,0.2,4.84,0.6c1.52,0.4,2.87,1.03,4.07,1.88c1.2,0.86,2.2,1.94,3,3.25
			c0.81,1.31,1.37,2.9,1.66,4.75h-4.2c-0.21-1.18-0.59-2.21-1.15-3.09c-0.56-0.88-1.25-1.61-2.08-2.17
			c-0.83-0.56-1.76-0.98-2.8-1.26c-1.05-0.28-2.16-0.42-3.34-0.42c-1.92,0-3.56,0.38-4.93,1.15c-1.37,0.77-2.49,1.78-3.36,3.03
			c-0.87,1.25-1.51,2.68-1.92,4.29c-0.42,1.61-0.62,3.25-0.62,4.93c0,1.65,0.24,3.24,0.7,4.75c0.47,1.52,1.17,2.86,2.08,4.02
			c0.92,1.17,2.04,2.09,3.38,2.79c1.34,0.69,2.9,1.04,4.66,1.04c1.62,0,3.07-0.27,4.36-0.8c1.28-0.53,2.37-1.26,3.25-2.19
			c0.89-0.93,1.54-2.02,1.97-3.27c0.43-1.25,0.61-2.6,0.55-4.05h-10.08V25.6h13.84v16.62h-2.65L330.35,38.29z"/>
		<path class="st2" d="M339.15,26.11c0.47-1.46,1.18-2.73,2.12-3.8c0.94-1.08,2.1-1.92,3.47-2.54c1.37-0.62,2.97-0.93,4.79-0.93
			c1.8,0,3.39,0.31,4.77,0.93c1.39,0.62,2.55,1.47,3.5,2.54c0.94,1.07,1.65,2.34,2.12,3.8c0.47,1.46,0.71,3.03,0.71,4.71
			c0,1.68-0.24,3.24-0.71,4.69c-0.47,1.44-1.18,2.7-2.12,3.78c-0.94,1.08-2.11,1.92-3.5,2.54c-1.38,0.62-2.97,0.93-4.77,0.93
			c-1.83,0-3.42-0.31-4.79-0.93c-1.37-0.62-2.53-1.47-3.47-2.54c-0.95-1.08-1.65-2.34-2.12-3.78c-0.47-1.45-0.71-3.01-0.71-4.69
			C338.44,29.14,338.68,27.57,339.15,26.11z M342.97,34.51c0.37,1.08,0.88,1.98,1.53,2.7c0.65,0.72,1.41,1.27,2.28,1.66
			c0.87,0.38,1.79,0.58,2.76,0.58c0.97,0,1.89-0.19,2.76-0.58c0.87-0.38,1.63-0.93,2.28-1.66c0.65-0.72,1.16-1.62,1.52-2.7
			c0.37-1.08,0.55-2.31,0.55-3.69c0-1.38-0.18-2.62-0.55-3.69c-0.37-1.08-0.88-1.98-1.52-2.72c-0.65-0.74-1.41-1.3-2.28-1.68
			c-0.87-0.38-1.79-0.57-2.76-0.57c-0.97,0-1.89,0.19-2.76,0.57c-0.87,0.38-1.63,0.94-2.28,1.68c-0.65,0.74-1.16,1.64-1.53,2.72
			c-0.37,1.08-0.55,2.31-0.55,3.69C342.42,32.21,342.6,33.44,342.97,34.51z"/>
		<path class="st2" d="M374.52,42.23h-4.02l-8.49-22.86h4.2l6.41,19.05h0.09l6.23-19.05h3.93L374.52,42.23z"/>
		<path class="st2" d="M404.98,34.98c-0.5,2.54-1.6,4.46-3.32,5.79c-1.71,1.33-3.86,1.99-6.46,1.99c-1.83,0-3.41-0.3-4.75-0.91
			c-1.34-0.6-2.47-1.44-3.38-2.5c-0.91-1.06-1.6-2.33-2.05-3.8c-0.46-1.47-0.72-3.08-0.77-4.82c0-1.71,0.26-3.29,0.79-4.75
			c0.53-1.46,1.28-2.72,2.24-3.78c0.96-1.06,2.09-1.89,3.4-2.47c1.31-0.59,2.75-0.88,4.31-0.88c2.03,0,3.72,0.42,5.06,1.26
			c1.34,0.84,2.42,1.91,3.23,3.21c0.81,1.3,1.37,2.71,1.68,4.24c0.31,1.53,0.43,2.99,0.38,4.38h-17.11c-0.03,1,0.09,1.95,0.36,2.85
			c0.26,0.9,0.69,1.69,1.28,2.39c0.59,0.69,1.34,1.25,2.25,1.66c0.91,0.41,1.99,0.62,3.23,0.62c1.56,0,2.86-0.37,3.89-1.1
			c1.03-0.74,1.71-1.86,2.03-3.36H404.98z M401.35,28.61c-0.06-0.88-0.26-1.72-0.6-2.52c-0.34-0.8-0.79-1.48-1.37-2.06
			c-0.58-0.58-1.26-1.03-2.06-1.37c-0.8-0.34-1.65-0.51-2.56-0.51c-0.97,0-1.85,0.17-2.63,0.51c-0.78,0.34-1.45,0.81-2.01,1.39
			c-0.56,0.59-1,1.28-1.33,2.06c-0.32,0.78-0.51,1.61-0.58,2.5H401.35z"/>
		<path class="st2" d="M409.09,19.37h3.54v4.82h0.09c0.91-1.86,2.03-3.23,3.36-4.11c1.33-0.88,3-1.3,5.04-1.24v3.98
			c-1.5,0-2.78,0.21-3.84,0.62c-1.06,0.41-1.92,1.02-2.56,1.81c-0.65,0.79-1.12,1.77-1.42,2.92c-0.29,1.15-0.44,2.45-0.44,3.89
			v10.17h-3.76V19.37z"/>
		<path class="st2" d="M424.78,19.37h3.54V23h0.09c0.79-1.41,1.82-2.46,3.07-3.14c1.25-0.68,2.7-1.02,4.36-1.02
			c1.5,0,2.75,0.21,3.76,0.62c1,0.41,1.81,0.99,2.43,1.72c0.62,0.74,1.05,1.62,1.31,2.63c0.25,1.02,0.38,2.14,0.38,3.38v15.03h-3.76
			V26.75c0-1.41-0.41-2.53-1.24-3.36c-0.82-0.82-1.96-1.24-3.4-1.24c-1.15,0-2.15,0.18-2.98,0.53c-0.84,0.35-1.54,0.86-2.1,1.5
			c-0.56,0.65-0.98,1.41-1.26,2.28c-0.28,0.87-0.42,1.82-0.42,2.85v12.91h-3.76V19.37z"/>
		<path class="st2" d="M449.36,19.37h3.54v3.36h0.09c1.71-2.59,4.17-3.89,7.39-3.89c1.41,0,2.69,0.29,3.84,0.88
			c1.15,0.59,1.96,1.59,2.43,3c0.76-1.24,1.78-2.19,3.05-2.87c1.27-0.68,2.63-1.02,4.11-1.02c1.15,0,2.19,0.12,3.12,0.37
			c0.93,0.25,1.72,0.64,2.38,1.17c0.67,0.53,1.18,1.22,1.55,2.06c0.37,0.84,0.55,1.85,0.55,3.03v16.76h-3.76V27.24
			c0-0.71-0.06-1.37-0.18-1.99c-0.12-0.62-0.34-1.16-0.66-1.61c-0.32-0.46-0.77-0.82-1.35-1.08c-0.58-0.27-1.32-0.4-2.24-0.4
			c-1.83,0-3.28,0.53-4.35,1.59c-1.07,1.06-1.61,2.48-1.61,4.24v14.24h-3.76V27.24c0-0.74-0.07-1.41-0.2-2.03
			c-0.13-0.62-0.36-1.16-0.68-1.61c-0.33-0.46-0.77-0.81-1.33-1.06c-0.56-0.25-1.25-0.38-2.08-0.38c-1.12,0-2.07,0.22-2.83,0.66
			c-0.77,0.44-1.39,0.97-1.88,1.59c-0.48,0.62-0.84,1.26-1.06,1.92c-0.22,0.66-0.33,1.22-0.33,1.66v14.24h-3.76V19.37z"/>
		<path class="st2" d="M506.57,34.98c-0.5,2.54-1.6,4.46-3.31,5.79c-1.71,1.33-3.86,1.99-6.46,1.99c-1.83,0-3.41-0.3-4.75-0.91
			c-1.34-0.6-2.47-1.44-3.38-2.5c-0.92-1.06-1.6-2.33-2.05-3.8c-0.46-1.47-0.72-3.08-0.78-4.82c0-1.71,0.27-3.29,0.8-4.75
			c0.53-1.46,1.27-2.72,2.23-3.78c0.96-1.06,2.09-1.89,3.41-2.47c1.31-0.59,2.75-0.88,4.31-0.88c2.03,0,3.72,0.42,5.06,1.26
			c1.34,0.84,2.42,1.91,3.23,3.21c0.81,1.3,1.37,2.71,1.68,4.24c0.31,1.53,0.43,2.99,0.38,4.38h-17.11c-0.03,1,0.09,1.95,0.35,2.85
			c0.27,0.9,0.7,1.69,1.29,2.39c0.59,0.69,1.34,1.25,2.25,1.66c0.91,0.41,1.99,0.62,3.23,0.62c1.56,0,2.86-0.37,3.89-1.1
			c1.03-0.74,1.71-1.86,2.03-3.36H506.57z M502.94,28.61c-0.06-0.88-0.26-1.72-0.59-2.52c-0.34-0.8-0.8-1.48-1.37-2.06
			c-0.57-0.58-1.26-1.03-2.05-1.37c-0.8-0.34-1.65-0.51-2.56-0.51c-0.98,0-1.85,0.17-2.63,0.51c-0.78,0.34-1.45,0.81-2.01,1.39
			c-0.56,0.59-1,1.28-1.33,2.06c-0.33,0.78-0.52,1.61-0.58,2.5H502.94z"/>
		<path class="st2" d="M510.81,19.37h3.54V23h0.09c0.79-1.41,1.82-2.46,3.07-3.14c1.25-0.68,2.7-1.02,4.36-1.02
			c1.5,0,2.75,0.21,3.76,0.62c1,0.41,1.81,0.99,2.43,1.72c0.62,0.74,1.05,1.62,1.31,2.63c0.25,1.02,0.38,2.14,0.38,3.38v15.03h-3.76
			V26.75c0-1.41-0.42-2.53-1.24-3.36c-0.82-0.82-1.96-1.24-3.4-1.24c-1.15,0-2.14,0.18-2.98,0.53c-0.84,0.35-1.54,0.86-2.1,1.5
			c-0.56,0.65-0.98,1.41-1.26,2.28c-0.28,0.87-0.42,1.82-0.42,2.85v12.91h-3.76V19.37z"/>
		<path class="st2" d="M540.61,19.37h4.56v3.31h-4.56v14.19c0,0.44,0.04,0.8,0.11,1.06c0.07,0.26,0.21,0.47,0.42,0.62
			c0.21,0.15,0.49,0.24,0.86,0.29c0.37,0.04,0.85,0.07,1.44,0.07h1.73v3.32h-2.88c-0.97,0-1.8-0.07-2.5-0.2
			c-0.69-0.13-1.25-0.38-1.68-0.73c-0.43-0.35-0.75-0.85-0.95-1.5c-0.2-0.65-0.31-1.5-0.31-2.56V22.69h-3.89v-3.31h3.89v-6.85h3.76
			V19.37z"/>
	</g>
	<g>
		<g>
			<path class="st1" d="M100.07,51.99h2.89V73.7h-2.89V51.99z"/>
			<path class="st1" d="M107.4,57.98h2.43v2.49h0.06c0.55-0.97,1.25-1.69,2.11-2.16c0.86-0.46,1.86-0.7,3-0.7
				c1.04,0,1.9,0.14,2.58,0.43c0.69,0.28,1.25,0.68,1.68,1.19c0.42,0.5,0.72,1.11,0.9,1.81c0.17,0.7,0.26,1.47,0.26,2.33V73.7h-2.59
				V63.06c0-0.97-0.29-1.74-0.85-2.31c-0.57-0.57-1.35-0.85-2.34-0.85c-0.79,0-1.48,0.12-2.06,0.36c-0.58,0.24-1.06,0.59-1.44,1.04
				c-0.38,0.44-0.67,0.97-0.87,1.56c-0.19,0.6-0.29,1.25-0.29,1.96v8.88h-2.58V57.98z"/>
			<path class="st1" d="M127.9,57.98h3.13v2.28h-3.13v9.76c0,0.3,0.02,0.55,0.07,0.73c0.05,0.18,0.15,0.33,0.29,0.42
				c0.14,0.1,0.34,0.17,0.59,0.2c0.25,0.03,0.58,0.04,0.99,0.04h1.19v2.28h-1.98c-0.67,0-1.24-0.05-1.72-0.14
				c-0.48-0.09-0.86-0.26-1.16-0.5c-0.29-0.24-0.51-0.59-0.66-1.03c-0.14-0.45-0.21-1.03-0.21-1.77V60.26h-2.68v-2.28h2.68v-4.72
				h2.58V57.98z"/>
			<path class="st1" d="M147.3,68.71c-0.34,1.74-1.11,3.07-2.28,3.99c-1.18,0.91-2.66,1.37-4.44,1.37c-1.26,0-2.35-0.21-3.27-0.62
				c-0.92-0.42-1.7-0.99-2.33-1.72c-0.62-0.73-1.1-1.6-1.41-2.62c-0.32-1.01-0.5-2.12-0.53-3.31c0-1.18,0.18-2.27,0.55-3.27
				c0.37-1.01,0.88-1.87,1.53-2.6c0.66-0.73,1.44-1.3,2.34-1.71c0.9-0.4,1.89-0.61,2.97-0.61c1.4,0,2.56,0.29,3.48,0.87
				c0.92,0.58,1.66,1.31,2.22,2.2c0.55,0.89,0.94,1.87,1.15,2.92c0.21,1.06,0.3,2.06,0.26,3.01h-11.77
				c-0.02,0.69,0.06,1.35,0.24,1.96c0.18,0.62,0.48,1.17,0.88,1.64c0.4,0.47,0.92,0.86,1.55,1.14c0.63,0.29,1.37,0.43,2.22,0.43
				c1.08,0,1.97-0.25,2.67-0.76c0.71-0.51,1.18-1.28,1.4-2.31H147.3z M144.81,64.34c-0.04-0.61-0.18-1.19-0.41-1.74
				c-0.24-0.55-0.55-1.02-0.94-1.41c-0.4-0.4-0.87-0.71-1.42-0.94c-0.55-0.23-1.14-0.35-1.77-0.35c-0.66,0-1.27,0.12-1.81,0.35
				c-0.54,0.23-1,0.55-1.38,0.96c-0.38,0.41-0.69,0.88-0.91,1.41c-0.23,0.54-0.36,1.11-0.4,1.72H144.81z"/>
			<path class="st1" d="M163.79,72.36c0,2.57-0.59,4.5-1.78,5.79c-1.19,1.29-3.03,1.93-5.52,1.93c-0.73,0-1.47-0.08-2.24-0.24
				c-0.75-0.16-1.45-0.43-2.06-0.79c-0.62-0.36-1.13-0.84-1.54-1.43c-0.41-0.59-0.63-1.31-0.67-2.16h2.58
				c0.02,0.46,0.17,0.86,0.45,1.19c0.27,0.32,0.61,0.59,1,0.79c0.4,0.2,0.83,0.35,1.3,0.44c0.47,0.09,0.91,0.13,1.34,0.13
				c0.85,0,1.57-0.15,2.16-0.44c0.59-0.29,1.08-0.7,1.46-1.22c0.39-0.52,0.67-1.14,0.84-1.87c0.17-0.73,0.26-1.54,0.26-2.43v-1.03
				h-0.06c-0.22,0.49-0.51,0.91-0.85,1.26c-0.35,0.36-0.74,0.65-1.17,0.88c-0.43,0.23-0.9,0.41-1.4,0.53
				c-0.5,0.12-0.99,0.18-1.47,0.18c-1.17,0-2.2-0.21-3.07-0.64c-0.87-0.43-1.6-1-2.19-1.73c-0.59-0.73-1.03-1.58-1.32-2.54
				c-0.29-0.96-0.44-1.98-0.44-3.06c0-0.93,0.12-1.88,0.37-2.86c0.24-0.97,0.65-1.87,1.21-2.67c0.57-0.81,1.31-1.48,2.25-1.99
				c0.93-0.52,2.07-0.78,3.44-0.78c0.99,0,1.9,0.22,2.72,0.65c0.82,0.44,1.47,1.09,1.93,1.96h0.06v-2.25h2.43V72.36z M158.72,71.07
				c0.6-0.35,1.08-0.82,1.45-1.4c0.36-0.58,0.63-1.23,0.81-1.96c0.17-0.73,0.26-1.46,0.26-2.19c0-0.69-0.08-1.37-0.24-2.04
				c-0.16-0.67-0.42-1.27-0.77-1.81c-0.36-0.54-0.82-0.97-1.39-1.29c-0.57-0.33-1.25-0.49-2.07-0.49c-0.83,0-1.54,0.16-2.13,0.47
				c-0.59,0.31-1.07,0.74-1.44,1.26c-0.38,0.53-0.65,1.14-0.82,1.83c-0.17,0.69-0.26,1.41-0.26,2.16c0,0.71,0.07,1.42,0.21,2.13
				c0.14,0.71,0.39,1.35,0.73,1.93c0.35,0.58,0.8,1.05,1.37,1.4c0.57,0.36,1.28,0.53,2.13,0.53
				C157.4,71.6,158.12,71.43,158.72,71.07z"/>
			<path class="st1" d="M167.58,57.98h2.43v3.31h0.06c0.62-1.28,1.4-2.22,2.31-2.83c0.91-0.61,2.07-0.89,3.47-0.85v2.74
				c-1.04,0-1.92,0.14-2.65,0.43c-0.73,0.28-1.32,0.7-1.76,1.24c-0.45,0.55-0.77,1.22-0.97,2.01c-0.2,0.79-0.3,1.68-0.3,2.67v7
				h-2.59V57.98z"/>
			<path class="st1" d="M181.12,55.15h-2.59v-3.16h2.59V55.15z M178.53,57.98h2.59V73.7h-2.59V57.98z"/>
			<path class="st1" d="M188.72,57.98h3.13v2.28h-3.13v9.76c0,0.3,0.02,0.55,0.08,0.73c0.05,0.18,0.15,0.33,0.29,0.42
				c0.14,0.1,0.34,0.17,0.59,0.2c0.25,0.03,0.58,0.04,0.99,0.04h1.18v2.28h-1.97c-0.67,0-1.24-0.05-1.72-0.14
				c-0.48-0.09-0.86-0.26-1.16-0.5c-0.29-0.24-0.51-0.59-0.65-1.03c-0.14-0.45-0.21-1.03-0.21-1.77V60.26h-2.68v-2.28h2.68v-4.72
				h2.59V57.98z"/>
			<path class="st1" d="M200.88,75.8c-0.3,0.77-0.6,1.42-0.9,1.95c-0.29,0.53-0.61,0.96-0.96,1.29c-0.34,0.33-0.74,0.58-1.18,0.73
				c-0.45,0.15-0.95,0.23-1.52,0.23c-0.31,0-0.61-0.02-0.91-0.06c-0.31-0.04-0.6-0.11-0.88-0.21v-2.37
				c0.24,0.08,0.49,0.16,0.74,0.24c0.26,0.08,0.51,0.12,0.78,0.12c0.53,0,0.95-0.12,1.28-0.36c0.33-0.24,0.61-0.6,0.85-1.06
				l1.06-2.68l-6.24-15.63h2.92l4.6,12.86h0.06l4.41-12.86h2.74L200.88,75.8z"/>
			<path class="st1" d="M265.18,58.34c-0.16-1.56-0.73-2.69-1.69-3.39c-0.96-0.7-2.19-1.05-3.7-1.05c-0.61,0-1.2,0.06-1.8,0.18
				c-0.59,0.12-1.11,0.33-1.56,0.61c-0.46,0.28-0.82,0.66-1.09,1.14c-0.28,0.48-0.41,1.07-0.41,1.78c0,0.67,0.2,1.21,0.59,1.63
				c0.4,0.42,0.92,0.76,1.58,1.02c0.66,0.26,1.4,0.48,2.23,0.65c0.83,0.17,1.68,0.36,2.56,0.56c0.87,0.2,1.72,0.44,2.55,0.71
				c0.83,0.27,1.57,0.64,2.22,1.11c0.65,0.47,1.17,1.06,1.57,1.78c0.39,0.72,0.59,1.61,0.59,2.66c0,1.15-0.26,2.14-0.77,2.96
				c-0.52,0.82-1.18,1.49-1.99,2.01c-0.81,0.52-1.72,0.9-2.72,1.14c-1,0.24-2,0.37-3,0.37c-1.22,0-2.37-0.15-3.45-0.46
				c-1.09-0.3-2.04-0.77-2.86-1.4c-0.82-0.63-1.47-1.42-1.94-2.39c-0.48-0.96-0.71-2.1-0.71-3.42h2.74c0,0.91,0.17,1.7,0.53,2.36
				c0.35,0.66,0.82,1.2,1.4,1.63c0.58,0.42,1.25,0.74,2.01,0.94c0.76,0.2,1.55,0.31,2.38,0.31c0.65,0,1.3-0.06,1.96-0.18
				c0.66-0.12,1.25-0.33,1.78-0.62c0.53-0.3,0.95-0.7,1.28-1.2c0.32-0.51,0.49-1.16,0.49-1.95c0-0.75-0.2-1.36-0.59-1.83
				c-0.4-0.46-0.92-0.84-1.57-1.14c-0.65-0.29-1.39-0.54-2.22-0.73c-0.83-0.19-1.68-0.38-2.55-0.56c-0.87-0.18-1.72-0.4-2.55-0.65
				c-0.83-0.25-1.58-0.59-2.24-1.02c-0.66-0.42-1.18-0.96-1.58-1.61c-0.39-0.65-0.59-1.47-0.59-2.46c0-1.1,0.22-2.04,0.67-2.84
				c0.45-0.8,1.04-1.46,1.78-1.98c0.74-0.52,1.58-0.9,2.53-1.16c0.94-0.25,1.91-0.38,2.9-0.38c1.12,0,2.15,0.13,3.1,0.39
				c0.96,0.26,1.79,0.68,2.5,1.25c0.71,0.57,1.28,1.28,1.7,2.14c0.43,0.86,0.66,1.89,0.7,3.09H265.18z"/>
			<path class="st1" d="M285.31,68.71c-0.34,1.74-1.1,3.07-2.28,3.99c-1.18,0.91-2.66,1.37-4.44,1.37c-1.26,0-2.35-0.21-3.27-0.62
				c-0.92-0.42-1.7-0.99-2.33-1.72c-0.63-0.73-1.1-1.6-1.41-2.62c-0.32-1.01-0.49-2.12-0.53-3.31c0-1.18,0.18-2.27,0.55-3.27
				c0.36-1.01,0.87-1.87,1.53-2.6c0.66-0.73,1.44-1.3,2.34-1.71c0.9-0.4,1.89-0.61,2.97-0.61c1.4,0,2.56,0.29,3.48,0.87
				c0.92,0.58,1.66,1.31,2.22,2.2c0.56,0.89,0.94,1.87,1.16,2.92c0.21,1.06,0.29,2.06,0.26,3.01h-11.77
				c-0.02,0.69,0.06,1.35,0.24,1.96c0.18,0.62,0.48,1.17,0.88,1.64c0.4,0.47,0.92,0.86,1.55,1.14c0.63,0.29,1.37,0.43,2.22,0.43
				c1.08,0,1.96-0.25,2.67-0.76c0.71-0.51,1.18-1.28,1.4-2.31H285.31z M282.82,64.34c-0.04-0.61-0.18-1.19-0.41-1.74
				c-0.24-0.55-0.55-1.02-0.95-1.41c-0.4-0.4-0.87-0.71-1.41-0.94c-0.55-0.23-1.13-0.35-1.77-0.35c-0.67,0-1.27,0.12-1.81,0.35
				c-0.54,0.23-1,0.55-1.38,0.96c-0.39,0.41-0.69,0.88-0.91,1.41c-0.23,0.54-0.36,1.11-0.4,1.72H282.82z"/>
			<path class="st1" d="M288.14,57.98h2.43v3.31h0.06c0.63-1.28,1.4-2.22,2.31-2.83c0.91-0.61,2.07-0.89,3.47-0.85v2.74
				c-1.04,0-1.92,0.14-2.65,0.43c-0.73,0.28-1.32,0.7-1.76,1.24c-0.45,0.55-0.77,1.22-0.97,2.01c-0.2,0.79-0.3,1.68-0.3,2.67v7
				h-2.59V57.98z"/>
			<path class="st1" d="M305.44,73.7h-2.77l-5.84-15.72h2.89l4.41,13.11h0.06l4.29-13.11h2.7L305.44,73.7z"/>
			<path class="st1" d="M316.3,55.15h-2.58v-3.16h2.58V55.15z M313.71,57.98h2.58V73.7h-2.58V57.98z"/>
			<path class="st1" d="M330.99,63.03c-0.2-0.99-0.64-1.76-1.29-2.31c-0.66-0.55-1.53-0.82-2.6-0.82c-0.94,0-1.72,0.17-2.34,0.52
				c-0.63,0.35-1.13,0.8-1.5,1.37c-0.38,0.57-0.64,1.22-0.81,1.96c-0.16,0.74-0.24,1.5-0.24,2.3c0,0.73,0.09,1.44,0.25,2.13
				c0.17,0.69,0.44,1.3,0.81,1.84c0.36,0.54,0.84,0.97,1.41,1.29c0.58,0.33,1.28,0.49,2.11,0.49c1.26,0,2.25-0.34,2.98-1.02
				c0.73-0.68,1.17-1.62,1.34-2.81h2.65c-0.29,1.93-1.01,3.43-2.19,4.5c-1.18,1.08-2.76,1.61-4.75,1.61c-1.2,0-2.25-0.2-3.17-0.59
				c-0.92-0.39-1.7-0.95-2.31-1.66c-0.62-0.71-1.09-1.55-1.4-2.54c-0.32-0.98-0.47-2.06-0.47-3.24c0-1.18,0.15-2.28,0.45-3.3
				c0.31-1.02,0.77-1.92,1.39-2.68c0.61-0.76,1.38-1.36,2.31-1.79c0.92-0.44,2.01-0.65,3.27-0.65c0.89,0,1.73,0.11,2.51,0.32
				c0.78,0.21,1.48,0.54,2.08,0.99c0.61,0.45,1.1,1.01,1.47,1.69c0.38,0.68,0.62,1.49,0.72,2.42H330.99z"/>
			<path class="st1" d="M350.06,68.71c-0.34,1.74-1.11,3.07-2.28,3.99c-1.18,0.91-2.66,1.37-4.44,1.37c-1.26,0-2.35-0.21-3.27-0.62
				c-0.92-0.42-1.7-0.99-2.33-1.72c-0.63-0.73-1.1-1.6-1.41-2.62c-0.32-1.01-0.49-2.12-0.53-3.31c0-1.18,0.18-2.27,0.55-3.27
				c0.36-1.01,0.88-1.87,1.54-2.6c0.66-0.73,1.44-1.3,2.34-1.71c0.9-0.4,1.89-0.61,2.97-0.61c1.4,0,2.56,0.29,3.48,0.87
				c0.93,0.58,1.67,1.31,2.22,2.2c0.55,0.89,0.94,1.87,1.15,2.92c0.22,1.06,0.3,2.06,0.26,3.01h-11.77
				c-0.02,0.69,0.06,1.35,0.24,1.96c0.18,0.62,0.48,1.17,0.88,1.64c0.41,0.47,0.92,0.86,1.55,1.14c0.63,0.29,1.37,0.43,2.22,0.43
				c1.08,0,1.96-0.25,2.68-0.76c0.71-0.51,1.17-1.28,1.4-2.31H350.06z M347.56,64.34c-0.04-0.61-0.17-1.19-0.41-1.74
				c-0.23-0.55-0.55-1.02-0.95-1.41c-0.39-0.4-0.87-0.71-1.41-0.94c-0.55-0.23-1.14-0.35-1.77-0.35c-0.67,0-1.27,0.12-1.81,0.35
				c-0.54,0.23-1,0.55-1.38,0.96c-0.39,0.41-0.69,0.88-0.91,1.41c-0.23,0.54-0.36,1.11-0.4,1.72H347.56z"/>
			<path class="st1" d="M387.22,51.99h14.99v2.43h-12.1v6.9h11.28v2.43h-11.28v7.51h12.2v2.43h-15.08V51.99z"/>
			<path class="st1" d="M409.6,65.43l-5.48-7.45h3.32l3.77,5.5l3.92-5.5h3.1l-5.41,7.24l6.08,8.48h-3.31l-4.38-6.51l-4.38,6.51
				h-3.14L409.6,65.43z"/>
			<path class="st1" d="M431.23,63.03c-0.21-0.99-0.64-1.76-1.3-2.31c-0.66-0.55-1.52-0.82-2.6-0.82c-0.94,0-1.72,0.17-2.34,0.52
				c-0.63,0.35-1.13,0.8-1.5,1.37c-0.38,0.57-0.65,1.22-0.81,1.96c-0.16,0.74-0.24,1.5-0.24,2.3c0,0.73,0.08,1.44,0.26,2.13
				c0.17,0.69,0.44,1.3,0.81,1.84c0.36,0.54,0.83,0.97,1.41,1.29c0.58,0.33,1.29,0.49,2.12,0.49c1.26,0,2.25-0.34,2.98-1.02
				c0.73-0.68,1.17-1.62,1.34-2.81H434c-0.29,1.93-1.02,3.43-2.19,4.5c-1.18,1.08-2.76,1.61-4.75,1.61c-1.2,0-2.25-0.2-3.18-0.59
				c-0.92-0.39-1.69-0.95-2.31-1.66c-0.62-0.71-1.09-1.55-1.4-2.54c-0.32-0.98-0.47-2.06-0.47-3.24c0-1.18,0.15-2.28,0.45-3.3
				c0.31-1.02,0.77-1.92,1.38-2.68c0.62-0.76,1.39-1.36,2.31-1.79c0.92-0.44,2.01-0.65,3.27-0.65c0.89,0,1.73,0.11,2.51,0.32
				c0.78,0.21,1.48,0.54,2.08,0.99c0.61,0.45,1.1,1.01,1.47,1.69c0.38,0.68,0.62,1.49,0.72,2.42H431.23z"/>
			<path class="st1" d="M450.3,68.71c-0.34,1.74-1.11,3.07-2.28,3.99c-1.18,0.91-2.66,1.37-4.44,1.37c-1.26,0-2.35-0.21-3.27-0.62
				c-0.92-0.42-1.7-0.99-2.33-1.72c-0.63-0.73-1.1-1.6-1.41-2.62c-0.31-1.01-0.49-2.12-0.53-3.31c0-1.18,0.18-2.27,0.55-3.27
				c0.36-1.01,0.88-1.87,1.54-2.6c0.66-0.73,1.44-1.3,2.34-1.71c0.9-0.4,1.89-0.61,2.97-0.61c1.4,0,2.56,0.29,3.48,0.87
				c0.93,0.58,1.67,1.31,2.22,2.2c0.56,0.89,0.94,1.87,1.16,2.92c0.21,1.06,0.3,2.06,0.26,3.01h-11.77
				c-0.02,0.69,0.06,1.35,0.24,1.96c0.18,0.62,0.48,1.17,0.88,1.64c0.41,0.47,0.92,0.86,1.55,1.14c0.62,0.29,1.37,0.43,2.22,0.43
				c1.08,0,1.96-0.25,2.67-0.76c0.71-0.51,1.17-1.28,1.4-2.31H450.3z M447.8,64.34c-0.04-0.61-0.18-1.19-0.41-1.74
				c-0.23-0.55-0.55-1.02-0.95-1.41c-0.39-0.4-0.87-0.71-1.41-0.94c-0.54-0.23-1.13-0.35-1.76-0.35c-0.67,0-1.27,0.12-1.81,0.35
				c-0.54,0.23-1,0.55-1.38,0.96c-0.38,0.41-0.69,0.88-0.91,1.41c-0.22,0.54-0.36,1.11-0.4,1.72H447.8z"/>
			<path class="st1" d="M453.37,51.99h2.59V73.7h-2.59V51.99z"/>
			<path class="st1" d="M460.12,51.99h2.59V73.7h-2.59V51.99z"/>
			<path class="st1" d="M480.13,68.71c-0.35,1.74-1.11,3.07-2.28,3.99c-1.18,0.91-2.66,1.37-4.44,1.37c-1.26,0-2.35-0.21-3.27-0.62
				c-0.92-0.42-1.7-0.99-2.33-1.72c-0.63-0.73-1.1-1.6-1.41-2.62c-0.32-1.01-0.49-2.12-0.53-3.31c0-1.18,0.18-2.27,0.55-3.27
				c0.37-1.01,0.88-1.87,1.54-2.6c0.66-0.73,1.44-1.3,2.34-1.71c0.9-0.4,1.89-0.61,2.97-0.61c1.4,0,2.56,0.29,3.48,0.87
				c0.92,0.58,1.66,1.31,2.22,2.2c0.56,0.89,0.94,1.87,1.16,2.92c0.21,1.06,0.3,2.06,0.26,3.01H468.6
				c-0.02,0.69,0.06,1.35,0.24,1.96c0.18,0.62,0.48,1.17,0.88,1.64c0.41,0.47,0.92,0.86,1.55,1.14c0.63,0.29,1.37,0.43,2.22,0.43
				c1.07,0,1.97-0.25,2.67-0.76c0.71-0.51,1.17-1.28,1.4-2.31H480.13z M477.64,64.34c-0.04-0.61-0.18-1.19-0.41-1.74
				c-0.23-0.55-0.55-1.02-0.94-1.41c-0.39-0.4-0.87-0.71-1.41-0.94c-0.55-0.23-1.14-0.35-1.77-0.35c-0.66,0-1.27,0.12-1.81,0.35
				c-0.53,0.23-1,0.55-1.38,0.96c-0.39,0.41-0.69,0.88-0.91,1.41c-0.22,0.54-0.35,1.11-0.4,1.72H477.64z"/>
			<path class="st1" d="M483.05,57.98h2.43v2.49h0.06c0.54-0.97,1.25-1.69,2.11-2.16c0.86-0.46,1.86-0.7,3-0.7
				c1.04,0,1.9,0.14,2.58,0.43c0.69,0.28,1.25,0.68,1.67,1.19c0.43,0.5,0.73,1.11,0.9,1.81c0.17,0.7,0.26,1.47,0.26,2.33V73.7h-2.58
				V63.06c0-0.97-0.29-1.74-0.85-2.31c-0.57-0.57-1.35-0.85-2.34-0.85c-0.79,0-1.48,0.12-2.05,0.36c-0.58,0.24-1.06,0.59-1.44,1.04
				c-0.39,0.44-0.67,0.97-0.87,1.56c-0.19,0.6-0.29,1.25-0.29,1.96v8.88h-2.58V57.98z"/>
			<path class="st1" d="M510.63,63.03c-0.21-0.99-0.63-1.76-1.29-2.31c-0.66-0.55-1.52-0.82-2.6-0.82c-0.93,0-1.71,0.17-2.34,0.52
				c-0.63,0.35-1.13,0.8-1.5,1.37c-0.38,0.57-0.65,1.22-0.81,1.96c-0.16,0.74-0.24,1.5-0.24,2.3c0,0.73,0.09,1.44,0.26,2.13
				c0.17,0.69,0.44,1.3,0.81,1.84c0.36,0.54,0.84,0.97,1.41,1.29c0.58,0.33,1.28,0.49,2.11,0.49c1.26,0,2.25-0.34,2.98-1.02
				c0.73-0.68,1.17-1.62,1.34-2.81h2.64c-0.28,1.93-1.01,3.43-2.19,4.5c-1.18,1.08-2.76,1.61-4.75,1.61c-1.2,0-2.26-0.2-3.18-0.59
				c-0.92-0.39-1.69-0.95-2.31-1.66c-0.62-0.71-1.08-1.55-1.4-2.54c-0.31-0.98-0.47-2.06-0.47-3.24c0-1.18,0.16-2.28,0.45-3.3
				c0.31-1.02,0.77-1.92,1.39-2.68c0.62-0.76,1.39-1.36,2.31-1.79c0.92-0.44,2.01-0.65,3.27-0.65c0.89,0,1.73,0.11,2.51,0.32
				c0.78,0.21,1.47,0.54,2.08,0.99c0.61,0.45,1.1,1.01,1.48,1.69c0.38,0.68,0.61,1.49,0.71,2.42H510.63z"/>
			<path class="st1" d="M529.7,68.71c-0.34,1.74-1.1,3.07-2.28,3.99c-1.18,0.91-2.66,1.37-4.44,1.37c-1.26,0-2.35-0.21-3.27-0.62
				c-0.92-0.42-1.7-0.99-2.33-1.72c-0.63-0.73-1.1-1.6-1.41-2.62c-0.32-1.01-0.49-2.12-0.53-3.31c0-1.18,0.18-2.27,0.54-3.27
				c0.36-1.01,0.88-1.87,1.54-2.6c0.66-0.73,1.44-1.3,2.34-1.71c0.9-0.4,1.89-0.61,2.97-0.61c1.4,0,2.56,0.29,3.48,0.87
				c0.93,0.58,1.67,1.31,2.22,2.2c0.56,0.89,0.94,1.87,1.16,2.92c0.21,1.06,0.3,2.06,0.26,3.01h-11.77
				c-0.02,0.69,0.06,1.35,0.24,1.96c0.19,0.62,0.48,1.17,0.89,1.64c0.4,0.47,0.92,0.86,1.55,1.14c0.63,0.29,1.37,0.43,2.22,0.43
				c1.08,0,1.96-0.25,2.68-0.76c0.71-0.51,1.17-1.28,1.4-2.31H529.7z M527.21,64.34c-0.04-0.61-0.18-1.19-0.41-1.74
				c-0.23-0.55-0.55-1.02-0.95-1.41c-0.39-0.4-0.87-0.71-1.41-0.94c-0.55-0.23-1.14-0.35-1.76-0.35c-0.67,0-1.27,0.12-1.81,0.35
				c-0.54,0.23-1,0.55-1.38,0.96c-0.39,0.41-0.69,0.88-0.92,1.41c-0.22,0.54-0.35,1.11-0.39,1.72H527.21z"/>
		</g>
	</g>
	<path class="st1" d="M235.16,67.81c0,2.22-1.8,4.02-4.02,4.02c-2.22,0-4.02-1.8-4.02-4.02c0-2.22,1.8-4.02,4.02-4.02
		C233.36,63.79,235.16,65.59,235.16,67.81z"/>
	<path class="st1" d="M379.58,67.81c0,2.22-1.8,4.02-4.02,4.02c-2.22,0-4.02-1.8-4.02-4.02c0-2.22,1.8-4.02,4.02-4.02
		C377.78,63.79,379.58,65.59,379.58,67.81z"/>
</g>
</svg>
